<svg style="position: absolute; width: 0; height: 0; overflow: hidden" version="1.1" xmlns="http://www.w3.org/2000/svg" xmlns:xlink="http://www.w3.org/1999/xlink">
  <defs>
    <!-- Material Icons  -->
    <g id="icon-apps"><path d="M6 20q-.825 0-1.412-.587Q4 18.825 4 18q0-.825.588-1.413Q5.175 16 6 16t1.412.587Q8 17.175 8 18q0 .825-.588 1.413Q6.825 20 6 20Zm6 0q-.825 0-1.412-.587Q10 18.825 10 18q0-.825.588-1.413Q11.175 16 12 16t1.413.587Q14 17.175 14 18q0 .825-.587 1.413Q12.825 20 12 20Zm6 0q-.825 0-1.413-.587Q16 18.825 16 18q0-.825.587-1.413Q17.175 16 18 16q.825 0 1.413.587Q20 17.175 20 18q0 .825-.587 1.413Q18.825 20 18 20ZM6 14q-.825 0-1.412-.588Q4 12.825 4 12t.588-1.413Q5.175 10 6 10t1.412.587Q8 11.175 8 12q0 .825-.588 1.412Q6.825 14 6 14Zm6 0q-.825 0-1.412-.588Q10 12.825 10 12t.588-1.413Q11.175 10 12 10t1.413.587Q14 11.175 14 12q0 .825-.587 1.412Q12.825 14 12 14Zm6 0q-.825 0-1.413-.588Q16 12.825 16 12t.587-1.413Q17.175 10 18 10q.825 0 1.413.587Q20 11.175 20 12q0 .825-.587 1.412Q18.825 14 18 14ZM6 8q-.825 0-1.412-.588Q4 6.825 4 6t.588-1.412Q5.175 4 6 4t1.412.588Q8 5.175 8 6t-.588 1.412Q6.825 8 6 8Zm6 0q-.825 0-1.412-.588Q10 6.825 10 6t.588-1.412Q11.175 4 12 4t1.413.588Q14 5.175 14 6t-.587 1.412Q12.825 8 12 8Zm6 0q-.825 0-1.413-.588Q16 6.825 16 6t.587-1.412Q17.175 4 18 4q.825 0 1.413.588Q20 5.175 20 6t-.587 1.412Q18.825 8 18 8Z"/></g>
    <g id="icon-close"><path d="m12 13.4-4.9 4.9q-.275.275-.7.275-.425 0-.7-.275-.275-.275-.275-.7 0-.425.275-.7l4.9-4.9-4.9-4.9q-.275-.275-.275-.7 0-.425.275-.7.275-.275.7-.275.425 0 .7.275l4.9 4.9 4.9-4.9q.275-.275.7-.275.425 0 .7.275.275.275.275.7 0 .425-.275.7L13.4 12l4.9 4.9q.275.275.275.7 0 .425-.275.7-.275.275-.7.275-.425 0-.7-.275Z"/></g>
    <g id="icon-favorite-filled"><path d="m10.65 19.8-1.725-1.575q-2.65-2.425-4.787-4.813Q2 11.025 2 8.15 2 5.8 3.575 4.225 5.15 2.65 7.5 2.65q1.325 0 2.5.562 1.175.563 2 1.538.825-.975 2-1.538 1.175-.562 2.5-.562 2.35 0 3.925 1.575Q22 5.8 22 8.15q0 2.875-2.125 5.275-2.125 2.4-4.825 4.825l-1.7 1.55q-.575.525-1.35.525-.775 0-1.35-.525Z"/></g>
    <g id="icon-favorite"><path d="m10.65 19.8-1.725-1.575q-2.65-2.425-4.787-4.813Q2 11.025 2 8.15 2 5.8 3.575 4.225 5.15 2.65 7.5 2.65q1.325 0 2.5.562 1.175.563 2 1.538.825-.975 2-1.538 1.175-.562 2.5-.562 2.35 0 3.925 1.575Q22 5.8 22 8.15q0 2.875-2.125 5.275-2.125 2.4-4.825 4.825l-1.7 1.55q-.575.55-1.35.55-.775 0-1.35-.55Zm.4-13.05q-.725-1.025-1.55-1.563-.825-.537-2-.537-1.5 0-2.5 1t-1 2.5q0 1.3.925 2.762.925 1.463 2.213 2.838 1.287 1.375 2.65 2.575Q11.15 17.525 12 18.3q.85-.775 2.213-1.975 1.362-1.2 2.65-2.575 1.287-1.375 2.212-2.838Q20 9.45 20 8.15q0-1.5-1-2.5t-2.5-1q-1.175 0-2 .537-.825.538-1.55 1.563-.175.25-.425.375T12 7.25q-.275 0-.525-.125t-.425-.375Zm.95 4.725Z"/></g>
    <g id="icon-search"><path d="m18.9 20.3-5.6-5.6q-.75.6-1.725.95Q10.6 16 9.5 16q-2.725 0-4.612-1.887Q3 12.225 3 9.5q0-2.725 1.888-4.613Q6.775 3 9.5 3t4.613 1.887Q16 6.775 16 9.5q0 1.1-.35 2.075-.35.975-.95 1.725l5.625 5.625q.275.275.275.675t-.3.7q-.275.275-.7.275-.425 0-.7-.275ZM9.5 14q1.875 0 3.188-1.312Q14 11.375 14 9.5q0-1.875-1.312-3.188Q11.375 5 9.5 5 7.625 5 6.312 6.312 5 7.625 5 9.5q0 1.875 1.312 3.188Q7.625 14 9.5 14Z"/></g>
    <g id="icon-unfold-more"><path d="m12 21-4.5-4.5 1.45-1.45L12 18.1l3.05-3.05 1.45 1.45ZM8.95 9.05 7.5 7.6 12 3.1l4.5 4.5-1.45 1.45L12 6Z"/></g>
    <g id="icon-back"><path d="m10.875 19.3-6.6-6.6q-.15-.15-.213-.325Q4 12.2 4 12t.062-.375q.063-.175.213-.325l6.6-6.6q.275-.275.687-.288.413-.012.713.288.3.275.313.687.012.413-.288.713L7.4 11h11.175q.425 0 .713.287.287.288.287.713t-.287.712Q19 13 18.575 13H7.4l4.9 4.9q.275.275.288.7.012.425-.288.7-.275.3-.7.3-.425 0-.725-.3Z"/></g>
    <!-- Pokemon Icons -->
    <g id="icon-bug"><path d="M 16.039062 0.0234375 C 16.058594 0 16.09375 -0.0078125 16.117188 0.0117188 L 17.820312 1.203125 C 17.847656 1.21875 17.851562 1.253906 17.835938 1.28125 L 15.464844 4.667969 C 16.617188 5.035156 17.402344 5.433594 17.402344 5.433594 C 17.402344 5.433594 15.480469 8.734375 12.226562 8.734375 C 8.96875 8.734375 6.652344 5.65625 6.652344 5.65625 C 6.652344 5.65625 7.472656 5.132812 8.691406 4.683594 L 6.089844 1.585938 C 6.070312 1.5625 6.074219 1.527344 6.097656 1.507812 L 7.691406 0.167969 C 7.710938 0.148438 7.746094 0.152344 7.765625 0.175781 L 11.0625 4.101562 C 11.34375 4.070312 11.628906 4.050781 11.921875 4.050781 C 12.335938 4.050781 12.753906 4.082031 13.160156 4.136719 Z M 16.683594 8.890625 C 17.554688 8.273438 18.867188 6.652344 18.867188 6.652344 C 18.867188 6.652344 22.226562 9.3125 22.226562 14.957031 C 22.226562 20.601562 16.421875 24 16.421875 24 C 16.421875 24 13.644531 21.199219 12.964844 17.644531 C 12.285156 14.09375 13.972656 10.148438 13.972656 10.148438 C 13.972656 10.148438 15.816406 9.511719 16.683594 8.890625 Z M 7.324219 8.890625 C 6.457031 8.273438 5.140625 6.652344 5.140625 6.652344 C 5.140625 6.652344 1.78125 9.3125 1.78125 14.957031 C 1.78125 20.601562 7.589844 24 7.589844 24 C 7.589844 24 10.363281 21.199219 11.042969 17.644531 C 11.726562 14.09375 10.039062 10.148438 10.039062 10.148438 C 10.039062 10.148438 8.195312 9.511719 7.324219 8.890625 Z M 7.324219 8.890625 "/></g>
    <g id="icon-dark"><path d="M 10.753906 21.226562 C 11.207031 21.296875 11.675781 21.332031 12.152344 21.332031 C 17.214844 21.332031 21.316406 17.230469 21.316406 12.167969 C 21.316406 7.105469 17.214844 3 12.152344 3 C 11.8125 3 11.476562 3.019531 11.144531 3.054688 C 13.65625 4.957031 15.316406 8.253906 15.316406 12 C 15.316406 15.9375 13.480469 19.378906 10.753906 21.226562 Z M 11.984375 24 C 18.609375 24 23.984375 18.628906 23.984375 12 C 23.984375 5.371094 18.609375 0 11.984375 0 C 5.355469 0 -0.015625 5.371094 -0.015625 12 C -0.015625 18.628906 5.355469 24 11.984375 24 Z M 11.984375 24 "/></g>
    <g id="icon-dragon"><path d="M 13.15625 11.949219 C 13.320312 11.847656 13.457031 11.640625 13.570312 11.410156 C 15.035156 12.007812 16.0625 13.421875 16.0625 15.070312 C 16.0625 17.261719 14.246094 19.039062 12.007812 19.039062 C 11.085938 19.039062 10.238281 18.742188 9.558594 18.234375 C 9.335938 18.128906 9.152344 18.027344 9 17.945312 C 8.769531 17.816406 8.613281 17.734375 8.519531 17.746094 C 8.238281 17.785156 8.320312 18.042969 8.394531 18.277344 C 8.445312 18.433594 8.492188 18.582031 8.417969 18.644531 C 8.34375 18.707031 8.097656 18.472656 7.8125 18.199219 C 7.421875 17.828125 6.957031 17.382812 6.734375 17.519531 C 6.5625 17.625 6.730469 17.910156 6.9375 18.261719 L 6.953125 18.285156 C 7.039062 18.433594 7.140625 18.585938 7.234375 18.722656 C 7.421875 19.003906 7.574219 19.230469 7.496094 19.265625 C 7.40625 19.3125 6.769531 18.882812 6.230469 18.285156 C 6.023438 18.054688 5.824219 17.808594 5.636719 17.574219 C 5.230469 17.066406 4.890625 16.644531 4.699219 16.695312 C 4.46875 16.753906 4.644531 17.226562 4.898438 17.683594 C 5.015625 17.898438 5.15625 18.113281 5.277344 18.300781 C 5.46875 18.59375 5.613281 18.816406 5.558594 18.84375 C 5.488281 18.878906 4.871094 18.277344 4.453125 17.519531 C 4.203125 17.066406 3.992188 16.570312 3.824219 16.164062 C 3.640625 15.726562 3.503906 15.402344 3.414062 15.367188 C 3.101562 15.253906 3.101562 15.894531 3.226562 16.816406 C 3.242188 16.933594 3.265625 17.0625 3.296875 17.191406 C 4.515625 21.128906 8.257812 24 12.683594 24 C 18.097656 24 22.488281 19.707031 22.488281 14.410156 C 22.488281 9.371094 18.511719 5.238281 13.457031 4.851562 C 13.464844 4.613281 13.589844 4.144531 13.589844 4.144531 C 13.589844 4.144531 14.480469 1.984375 14.527344 1.523438 C 14.53125 1.492188 14.535156 1.460938 14.539062 1.425781 C 14.59375 0.925781 14.699219 0 13.902344 0 C 13.476562 0 13.277344 0.316406 13.050781 0.679688 C 12.964844 0.816406 12.871094 0.964844 12.761719 1.101562 C 11.972656 2.089844 10.644531 3.320312 9.890625 3.976562 C 8.296875 5.367188 6.730469 6.507812 5.820312 7.171875 C 5.40625 7.476562 5.125 7.679688 5.039062 7.765625 C 4.386719 8.402344 2.046875 12.621094 2.046875 12.621094 C 2.046875 12.621094 1.289062 13.976562 1.558594 14.253906 C 1.828125 14.527344 2.476562 14.464844 2.476562 14.464844 C 2.476562 14.464844 11.191406 12.464844 11.972656 12.304688 C 12.183594 12.265625 12.332031 12.238281 12.445312 12.222656 C 12.753906 12.167969 12.808594 12.160156 13.15625 11.949219 Z M 6.996094 9.378906 C 6.527344 9.824219 5.75 10.882812 5.75 10.882812 C 5.75 10.882812 7.195312 10.972656 7.988281 10.21875 C 8.78125 9.464844 8.601562 8.175781 8.601562 8.175781 C 8.601562 8.175781 7.464844 8.933594 6.996094 9.378906 Z M 6.996094 9.378906 "/></g>
    <g id="icon-electric"><path d="M 7.152344 0.0273438 C 7.148438 0.015625 7.15625 0 7.171875 0 L 15.601562 0 C 15.609375 0 15.617188 0.0078125 15.621094 0.015625 L 19.492188 12.523438 C 19.496094 12.535156 19.484375 12.550781 19.472656 12.550781 L 13.859375 12.550781 C 13.851562 12.550781 13.847656 12.558594 13.851562 12.5625 L 17.070312 23.894531 C 17.074219 23.914062 17.046875 23.929688 17.03125 23.910156 L 4.523438 7.277344 C 4.515625 7.265625 4.523438 7.246094 4.542969 7.246094 L 9.632812 7.246094 C 9.640625 7.246094 9.648438 7.238281 9.644531 7.230469 Z M 7.152344 0.0273438 "/></g>
    <g id="icon-fairy"><path d="M 4.816406 19.03125 L 8.664062 17.914062 L 11.988281 23.992188 C 11.992188 24 12.003906 24 12.007812 23.992188 L 15.335938 17.914062 L 19.183594 19.03125 C 19.191406 19.03125 19.199219 19.023438 19.199219 19.015625 L 18.082031 15.242188 L 23.992188 12.007812 C 24 12.003906 24 11.992188 23.992188 11.988281 L 18.03125 8.730469 L 19.199219 4.792969 C 19.199219 4.78125 19.191406 4.773438 19.183594 4.777344 L 15.242188 5.921875 L 12.007812 0.0078125 C 12.003906 -0.00390625 11.992188 -0.00390625 11.988281 0.0078125 L 8.753906 5.921875 L 4.816406 4.777344 C 4.808594 4.773438 4.796875 4.78125 4.800781 4.792969 L 5.964844 8.730469 L 0.0078125 11.988281 C -0.00390625 11.992188 -0.00390625 12.003906 0.0078125 12.007812 L 5.917969 15.242188 L 4.800781 19.015625 C 4.796875 19.023438 4.808594 19.03125 4.816406 19.03125 Z M 7.800781 12.042969 L 10.53125 13.53125 L 12.019531 16.257812 C 12.027344 16.269531 12.035156 16.269531 12.042969 16.257812 L 13.53125 13.53125 L 16.257812 12.042969 C 16.265625 12.035156 16.265625 12.027344 16.257812 12.019531 L 13.53125 10.53125 L 12.042969 7.800781 C 12.035156 7.792969 12.027344 7.792969 12.019531 7.800781 L 10.53125 10.53125 L 7.800781 12.019531 C 7.792969 12.027344 7.792969 12.035156 7.800781 12.042969 Z M 7.800781 12.042969 "/></g>
    <g id="icon-fighting"><path d="M 4.136719 1.996094 C 4.425781 0.847656 5.464844 0 6.703125 0 C 7.628906 0 8.445312 0.476562 8.917969 1.199219 L 9.695312 1.199219 C 10.175781 0.707031 10.847656 0.398438 11.589844 0.398438 C 12.679688 0.398438 13.617188 1.058594 14.023438 2 L 14.667969 2 C 15.074219 1.746094 15.554688 1.601562 16.070312 1.601562 C 17.160156 1.601562 18.097656 2.257812 18.5 3.199219 L 20.265625 3.199219 C 20.277344 3.199219 20.292969 3.203125 20.304688 3.210938 C 20.386719 3.203125 20.46875 3.199219 20.550781 3.199219 C 22.011719 3.199219 23.195312 4.386719 23.195312 5.847656 L 23.195312 13.929688 C 23.195312 13.976562 23.195312 14.027344 23.191406 14.074219 C 23.035156 19.582031 18.082031 24 11.996094 24 C 5.8125 24 0.796875 19.433594 0.796875 13.800781 C 0.796875 11.082031 1.964844 8.609375 3.871094 6.78125 C 3.863281 9.433594 3.910156 12.171875 4.117188 12.125 C 4.667969 12 4.238281 3.789062 4.136719 1.996094 Z M 4.136719 1.996094 "/></g>
    <g id="icon-fire"><path d="M 16.511719 18.535156 C 16.808594 17.449219 16.234375 15.222656 16.234375 15.222656 C 16.234375 15.222656 15.816406 17.035156 15.164062 17.707031 C 14.605469 18.28125 13.925781 18.675781 12.945312 18.78125 C 13.746094 18.394531 14.296875 17.582031 14.296875 16.648438 C 14.296875 15.335938 13.214844 14.269531 11.875 14.269531 C 10.539062 14.269531 9.457031 15.335938 9.457031 16.648438 C 9.457031 17.007812 9.539062 17.347656 9.683594 17.652344 C 8.847656 16.984375 8.714844 15.917969 8.714844 15.917969 C 8.714844 15.917969 7.78125 19.792969 10.351562 21.617188 C 12.925781 23.4375 17.964844 21.871094 17.964844 21.871094 C 17.964844 21.871094 10.753906 26.945312 5.410156 21.425781 C 0.808594 16.667969 4.210938 10.40625 4.210938 10.40625 C 4.210938 10.40625 4.0625 10.988281 4.0625 11.660156 C 4.0625 12.335938 4.429688 12.847656 4.429688 12.847656 C 4.429688 12.847656 5.519531 10.550781 6.367188 9.617188 C 7.171875 8.730469 8.179688 8.011719 9.046875 7.394531 C 9.71875 6.917969 10.304688 6.496094 10.65625 6.105469 C 12.589844 3.941406 11.40625 0 11.40625 0 C 11.40625 0 13.585938 1.921875 14.195312 4.40625 C 14.425781 5.351562 14.277344 6.429688 14.144531 7.394531 C 13.929688 8.957031 13.753906 10.21875 15.320312 10.136719 C 17.847656 10.003906 15.648438 6.105469 15.648438 6.105469 C 15.648438 6.105469 21.390625 9.121094 20.960938 14.398438 C 20.53125 19.671875 14.6875 20.875 14.6875 20.875 C 14.6875 20.875 16.214844 19.617188 16.511719 18.535156 Z M 16.511719 18.535156 "/></g>
    <g id="icon-flying"><path d="M 8.378906 22.394531 C 11.894531 22.394531 14.902344 20.441406 16.144531 17.667969 C 16.160156 17.636719 11.15625 18.96875 11.316406 18.5 C 11.386719 18.289062 14.453125 17.167969 16.691406 15.859375 C 17.972656 15.109375 18.566406 13.519531 18.566406 13.519531 C 18.566406 13.519531 16.402344 14.570312 15.308594 14.835938 C 13.101562 15.375 11.164062 15.316406 11.164062 15.257812 C 11.164062 15.136719 14.386719 14.527344 18.863281 11.796875 C 20.96875 10.511719 21.542969 8.300781 21.542969 8.300781 C 21.542969 8.300781 19.226562 9.679688 17.828125 10.136719 C 14.503906 11.21875 11.476562 11.542969 11.476562 11.394531 C 11.476562 11.082031 14.140625 10.351562 16.96875 8.980469 C 18.441406 8.269531 19.710938 7.335938 21.1875 6.300781 C 23.601562 4.609375 24 1.59375 24 1.59375 C 24 1.59375 21.617188 3.128906 20.457031 3.640625 C 15.664062 5.742188 11.429688 6.847656 8.378906 7.085938 C 3.769531 7.445312 0 10.660156 0 14.835938 C 0 19.011719 3.75 22.394531 8.378906 22.394531 Z M 8.378906 22.394531 "/></g>
    <g id="icon-ghost"><path d="M 17.292969 23.917969 C 15.128906 24.027344 12.652344 24.027344 11.808594 23.917969 C 5.238281 23.050781 0 18.25 0 11.757812 C 0 5.261719 5.371094 0 12 0 C 18.628906 0 24 5.261719 24 11.757812 C 24 14.777344 22.835938 17.53125 20.929688 19.613281 C 20.410156 20.175781 21.121094 20.574219 21.84375 20.976562 C 22.554688 21.371094 23.273438 21.773438 22.855469 22.347656 C 22.394531 22.976562 19.894531 23.785156 17.292969 23.917969 Z M 10.3125 10.285156 C 10.3125 11.300781 9.472656 12.125 8.4375 12.125 C 7.402344 12.125 6.5625 11.300781 6.5625 10.285156 C 6.5625 9.605469 6.941406 9.011719 7.5 8.695312 C 7.535156 9.578125 8.261719 10.285156 9.152344 10.285156 Z M 16.125 8.695312 C 16.089844 9.578125 15.363281 10.285156 14.472656 10.285156 L 13.3125 10.285156 C 13.3125 11.300781 14.152344 12.125 15.1875 12.125 C 16.222656 12.125 17.0625 11.300781 17.0625 10.285156 C 17.0625 9.605469 16.683594 9.011719 16.125 8.695312 Z M 16.125 8.695312 "/></g>
    <g id="icon-grass"><path d="M 4.566406 20.65625 C 4.484375 20.578125 4.402344 20.5 4.320312 20.417969 C 0.0703125 16.167969 0.0703125 9.277344 4.320312 5.023438 C 8.574219 0.773438 22.117188 0.488281 22.117188 0.488281 C 22.117188 0.488281 23.964844 16.167969 19.714844 20.417969 C 15.941406 24.195312 10.082031 24.617188 5.839844 21.683594 L 9.257812 17.492188 L 14.722656 16.3125 L 10.261719 15.867188 L 13.09375 12.980469 L 16.320312 12.273438 L 13.769531 11.519531 L 16.320312 6.917969 L 12.691406 10.988281 L 11.292969 9.007812 L 11.785156 12.273438 L 9.257812 15.121094 L 8.085938 11.519531 L 8.085938 16.3125 Z M 4.566406 20.65625 "/></g>
    <g id="icon-ground"><path d="M 5.285156 20.613281 C 5.277344 20.613281 5.273438 20.605469 5.277344 20.601562 L 11.402344 3.289062 C 11.40625 3.285156 11.410156 3.28125 11.414062 3.28125 L 17.953125 3.28125 C 17.957031 3.28125 17.960938 3.285156 17.964844 3.289062 L 24 20.601562 C 24 20.605469 23.996094 20.613281 23.992188 20.613281 Z M 0.0078125 20.679688 C 0.00390625 20.679688 0 20.675781 0 20.667969 L 4.5625 8.488281 C 4.566406 8.484375 4.566406 8.480469 4.570312 8.480469 L 8.535156 8.480469 C 8.542969 8.480469 8.546875 8.488281 8.546875 8.492188 L 4.132812 20.675781 C 4.132812 20.679688 4.128906 20.679688 4.125 20.679688 Z M 0.0078125 20.679688 "/></g>
    <g id="icon-ice"><path d="M 18.015625 1.832031 L 18.089844 8.316406 L 12.433594 11.03125 L 12.363281 4.90625 Z M 18.015625 1.832031 "/><path d="M 23.683594 12.050781 L 18.085938 15.25 L 12.480469 12.042969 L 18.082031 9.101562 Z M 23.683594 12.050781 "/><path d="M 11.484375 12.050781 L 5.886719 15.25 L 0.285156 12.042969 L 5.882812 9.101562 Z M 11.484375 12.050781 "/><path d="M 5.824219 1.804688 L 11.636719 4.683594 L 11.488281 10.953125 L 6 8.238281 Z M 5.824219 1.804688 "/><path d="M 18.171875 22.195312 L 12.359375 19.316406 L 12.507812 13.046875 L 17.996094 15.761719 Z M 18.171875 22.195312 "/><path d="M 6.023438 22.253906 L 5.949219 15.769531 L 11.605469 13.054688 L 11.675781 19.175781 Z M 6.023438 22.253906 "/></g>
    <g id="icon-normal"><path d="M 22.546875 12 C 22.546875 17.824219 17.824219 22.546875 12 22.546875 C 6.175781 22.546875 1.453125 17.824219 1.453125 12 C 1.453125 6.175781 6.175781 1.453125 12 1.453125 C 17.824219 1.453125 22.546875 6.175781 22.546875 12 Z M 18.027344 12 C 18.027344 15.328125 15.328125 18.027344 12 18.027344 C 8.671875 18.027344 5.972656 15.328125 5.972656 12 C 5.972656 8.671875 8.671875 5.972656 12 5.972656 C 15.328125 5.972656 18.027344 8.671875 18.027344 12 Z M 18.027344 12 "/></g>
    <g id="icon-poison"><path d="M 20.054688 18.441406 C 22.476562 16.503906 24 13.707031 24 10.589844 C 24 4.742188 18.628906 0 12 0 C 5.371094 0 0 4.742188 0 10.589844 C 0 13.59375 1.414062 16.300781 3.6875 18.230469 C 3.550781 18.707031 3.472656 19.222656 3.472656 19.761719 C 3.472656 22.101562 4.886719 24 6.632812 24 C 7.765625 24 8.757812 23.199219 9.316406 21.996094 C 9.871094 23.199219 10.867188 24 12 24 C 13.03125 24 13.949219 23.335938 14.527344 22.304688 C 15.101562 23.335938 16.019531 24 17.050781 24 C 18.796875 24 20.210938 22.101562 20.210938 19.761719 C 20.210938 19.300781 20.15625 18.859375 20.054688 18.441406 Z M 18.949219 10.800781 C 18.949219 13.769531 15.765625 16.179688 11.84375 16.179688 C 7.917969 16.179688 4.738281 13.769531 4.738281 10.800781 C 4.738281 7.832031 7.917969 5.425781 11.84375 5.425781 C 15.765625 5.425781 18.949219 7.832031 18.949219 10.800781 Z M 18.949219 10.800781 "/></g>
    <g id="icon-psychic"><path d="M 21.371094 19.929688 C 21.371094 19.929688 18.34375 22.359375 12.324219 21.351562 C 7.753906 20.589844 5.316406 15.554688 5.316406 12.847656 C 5.316406 6.429688 10.066406 4.96875 13.28125 4.96875 C 16.492188 4.96875 18.585938 8.097656 18.585938 10.523438 C 18.585938 12.949219 16.871094 15.070312 14.203125 15.070312 C 11.535156 15.070312 10.746094 13.195312 10.746094 11.472656 C 10.746094 9.75 12.136719 9.144531 13.410156 9.144531 C 14.679688 9.144531 15.113281 10.230469 15.113281 11.160156 C 15.113281 12.09375 14.390625 12.429688 13.789062 12.429688 C 13.183594 12.429688 13.125 12.125 12.894531 11.804688 C 12.664062 11.484375 13.1875 10.273438 12.324219 10.273438 C 11.457031 10.273438 11.296875 11.664062 11.296875 11.664062 C 11.296875 11.664062 11.613281 14.351562 14.203125 14.304688 C 16.792969 14.257812 18.023438 12.257812 17.667969 10.273438 C 17.308594 8.289062 15.382812 6.179688 12.007812 6.605469 C 8.628906 7.03125 7.25 10.445312 7.855469 14.09375 C 8.464844 17.742188 12.835938 19.855469 16.269531 19.097656 C 19.707031 18.335938 23.128906 15.847656 23.128906 9.539062 C 23.128906 3.234375 17.667969 -0.558594 11.152344 0.0664062 C 4.640625 0.691406 0.597656 6.386719 0.855469 13.226562 C 1.113281 20.070312 7.605469 23.796875 13.097656 23.988281 C 18.585938 24.179688 21.953125 21.003906 21.953125 21.003906 C 21.953125 21.003906 22.710938 20.328125 22.414062 19.800781 C 22.117188 19.273438 21.371094 19.929688 21.371094 19.929688 Z M 21.371094 19.929688 "/></g>
    <g id="icon-rock"><path d="M 18.523438 11.472656 C 18.519531 11.472656 18.519531 11.46875 18.519531 11.464844 L 20.050781 2.539062 C 20.050781 2.535156 20.054688 2.53125 20.058594 2.53125 L 20.542969 2.53125 C 20.546875 2.53125 20.550781 2.535156 20.554688 2.539062 L 24.003906 13.460938 C 24.003906 13.460938 24.003906 13.464844 24 13.46875 L 21.457031 15.453125 C 21.453125 15.457031 21.445312 15.457031 21.445312 15.453125 Z M -0.046875 17.390625 C -0.046875 17.394531 -0.0429688 17.398438 -0.0390625 17.398438 L 5.203125 19.113281 C 5.203125 19.113281 5.207031 19.113281 5.210938 19.113281 L 16.929688 11.023438 C 16.929688 11.019531 16.933594 11.019531 16.933594 11.015625 L 18.1875 2.585938 C 18.191406 2.578125 18.1875 2.574219 18.179688 2.574219 L 7.800781 2.574219 C 7.796875 2.574219 7.796875 2.574219 7.792969 2.578125 L -0.0429688 12.035156 C -0.046875 12.035156 -0.046875 12.035156 -0.046875 12.039062 Z M 7.386719 19.550781 L 13.113281 21.425781 C 13.117188 21.429688 13.121094 21.425781 13.121094 21.425781 L 19.941406 16.535156 C 19.945312 16.53125 19.945312 16.527344 19.945312 16.523438 L 17.386719 12.71875 C 17.382812 12.714844 17.378906 12.714844 17.375 12.714844 Z M 7.386719 19.550781 "/></g>
    <g id="icon-steel"><path d="M 0.00390625 11.929688 C 0 11.925781 0 11.917969 0.00390625 11.914062 L 6.039062 1.601562 C 6.039062 1.597656 6.046875 1.59375 6.050781 1.59375 L 18.015625 1.59375 C 18.019531 1.59375 18.027344 1.597656 18.027344 1.601562 L 23.996094 11.914062 C 24 11.917969 24 11.925781 23.996094 11.929688 L 18.027344 22.230469 C 18.027344 22.234375 18.019531 22.238281 18.015625 22.238281 L 6.050781 22.238281 C 6.046875 22.238281 6.039062 22.234375 6.039062 22.230469 Z M 17.558594 11.917969 C 17.558594 14.984375 15.070312 17.476562 12 17.476562 C 8.933594 17.476562 6.445312 14.984375 6.445312 11.917969 C 6.445312 8.847656 8.933594 6.359375 12 6.359375 C 15.070312 6.359375 17.558594 8.847656 17.558594 11.917969 Z M 17.558594 11.917969 "/></g>
    <g id="icon-water"><path d="M 19.789062 16.242188 C 19.789062 20.527344 16.304688 24 12.003906 24 C 7.703125 24 4.21875 20.527344 4.21875 16.242188 C 4.21875 12.078125 11.582031 0.636719 11.988281 0.0117188 C 11.996094 -0.00390625 12.011719 -0.00390625 12.019531 0.0117188 C 12.425781 0.636719 19.789062 12.078125 19.789062 16.242188 Z M 10.707031 21.511719 C 6.753906 20.648438 7.433594 16.273438 7.433594 16.273438 C 7.433594 16.273438 8.511719 18.914062 11.128906 19.769531 C 13.746094 20.625 16.910156 19.371094 16.910156 19.371094 C 16.910156 19.371094 14.65625 22.375 10.707031 21.511719 Z M 10.707031 21.511719 "/></g>
  </defs>
</svg>
